<!-- created by svgstack.com | Attribution is required. --><svg width="168" height="64" viewBox="0 0 168 64" fill="none" xmlns="http://www.w3.org/2000/svg"><path d="M83.8706 1.37286C38.2387 1.37286 1.65991 15.0506 1.65991 32.1994C1.65991 49.2438 38.5401 63.0272 83.8706 63.0272C129.202 63.0272 166.083 49.1975 166.083 32.1994C166.083 15.2013 129.202 1.37286 83.8706 1.37286Z" fill="#003478"/><path d="M116.253 38.7296C116.275 38.8708 116.46 39.006 116.64 39.07C116.706 39.0921 116.738 39.1362 116.669 39.2862C116.157 40.3835 115.687 41.016 115.045 41.9694C114.454 42.8503 113.79 43.5375 112.985 44.1986C111.77 45.2034 110.084 46.2972 108.69 45.5619C108.071 45.2406 107.803 44.3739 107.815 43.6723C107.844 41.6993 108.722 39.6738 110.343 37.6831C112.318 35.2507 114.503 33.989 115.936 34.6786C117.419 35.386 116.946 37.1031 116.282 38.451C116.23 38.5554 116.23 38.6436 116.252 38.7289M132.168 23.3562C132.275 23.1679 132.162 23.0305 131.925 23.0305C130.686 23.0305 129.06 23.0333 127.77 23.0333C127.462 23.0333 127.304 23.07 127.159 23.3568C126.682 24.2695 120.876 32.9711 119.795 34.6609C119.613 34.9182 119.391 34.8821 119.365 34.5873C119.256 33.5836 118.389 32.43 117.023 31.8779C115.983 31.4558 114.965 31.3793 113.908 31.5198C111.998 31.7764 110.297 32.7837 108.801 33.9199C106.547 35.6336 104.602 37.8549 102.091 39.4962C100.72 40.3896 98.8431 41.1688 97.5871 40.0057C96.4505 38.9519 96.5789 36.6113 98.318 34.801C98.5011 34.6113 98.721 34.7715 98.6864 34.9399C98.5224 35.7586 98.7232 36.5728 99.3453 37.1437C100.104 37.8239 101.19 37.9006 102.119 37.4466C103.216 36.9032 103.86 35.8539 104.048 34.663C104.339 32.8156 102.917 31.1863 101.137 31.0556C99.6918 30.9541 98.3057 31.457 96.955 32.5718C96.2777 33.1336 95.8931 33.5486 95.3074 34.3816C95.1648 34.5867 94.9456 34.6072 94.9522 34.3043C95.0184 31.9391 94.0411 30.6084 92.0858 30.565C90.5678 30.5282 88.9465 31.3522 87.6826 32.3598C86.2971 33.4725 85.0857 34.9471 83.7869 36.3326C83.6251 36.5032 83.4846 36.4951 83.439 36.1642C83.4023 34.5971 83.0059 33.0792 82.2807 32.0013C82.0241 31.6263 81.4838 31.4409 81.03 31.6939C80.8204 31.8086 80.0914 32.144 79.5605 32.5714C79.2973 32.7883 79.1943 33.1023 79.3112 33.5048C80.0112 35.846 79.8575 38.5079 78.9075 40.7561C78.0352 42.8153 76.3402 44.6724 74.3479 45.3009C73.0354 45.7171 71.671 45.5135 70.8267 44.3499C69.6672 42.744 70.1354 39.9511 71.8639 37.6322C73.3893 35.5902 75.5959 34.2931 77.7966 33.4579C78.0555 33.3579 78.1092 33.1917 78.0356 32.9718C77.9165 32.61 77.7253 32.1173 77.6481 31.8924C77.4458 31.3549 76.8808 31.268 76.1906 31.343C74.5915 31.5291 73.1489 32.077 71.724 32.84C67.9927 34.8381 66.1219 38.7052 65.3021 40.7741C64.9072 41.768 64.5697 42.3879 64.1335 42.9376C63.5452 43.677 62.8068 44.3501 61.4566 45.5359C61.3345 45.6447 61.2433 45.8712 61.3463 46.0822C61.4838 46.3675 62.1861 47.3593 62.3842 47.4478C62.6041 47.5559 62.8592 47.4036 62.9614 47.3315C63.9062 46.691 65.0366 45.6759 65.5897 44.9874C65.7838 44.7514 65.9832 44.8507 66.0861 45.2088C66.6023 47.0505 67.954 48.5543 69.8231 49.1834C73.2445 50.3372 76.793 48.6671 79.4716 45.7597C81.174 43.9118 81.7883 42.7232 82.4408 41.9154C83.5467 40.5453 85.728 37.4803 88.3261 35.5124C89.2789 34.7866 90.4063 34.233 90.9732 34.6007C91.4284 34.8956 91.5755 35.5809 90.8453 36.9087C88.1964 41.7459 84.299 47.429 83.5842 48.8072C83.4533 49.0461 83.5695 49.2343 83.8181 49.2343C85.2042 49.2275 86.5782 49.231 87.8365 49.231C88.0461 49.2236 88.1396 49.1251 88.2447 48.9773C90.2776 45.7952 92.1906 42.7666 94.2412 39.6353C94.356 39.4507 94.4618 39.5911 94.4662 39.672C94.5103 40.3985 94.6868 41.3922 95.1185 42.0447C95.8937 43.251 96.9921 43.7693 98.2103 43.7773C99.1797 43.792 99.6701 43.6412 100.715 43.2507C101.566 42.9352 102.249 42.5213 102.773 42.1466C103.079 41.9333 103.132 42.29 103.125 42.3444C102.654 44.8706 103.235 47.8638 105.746 49.1048C108.751 50.5863 112.051 48.504 113.951 46.6243C114.137 46.4434 114.336 46.4625 114.355 46.853C114.399 47.5707 114.72 48.4223 115.314 49.0183C116.905 50.6157 120.117 49.9826 123.34 47.4878C125.41 45.8905 127.575 43.6338 129.531 41.2441C129.605 41.1515 129.658 41.0029 129.516 40.8522C129.218 40.5404 128.788 40.1837 128.492 39.9091C128.358 39.7944 128.16 39.8274 128.047 39.913C126.042 41.8198 124.237 43.9943 121.629 45.7925C120.749 46.4065 119.347 46.9019 118.717 46.0492C118.472 45.7183 118.5 45.2608 118.739 44.6601C119.5 42.7636 131.54 24.432 132.165 23.3508" fill="white"/><path d="M75.519 25.5683C75.5705 25.8404 75.6764 25.8934 75.8 25.8706C76.4133 25.7478 77.0844 25.2433 77.4818 24.6586C77.8436 24.1284 78.0134 23.3633 77.6538 23.0567C77.3332 22.7809 76.8112 22.8588 76.4242 23.2008C75.6535 23.8817 75.4194 24.8479 75.5188 25.5689M44.8308 49.1658C40.3414 49.1952 36.3863 46.4227 35.9324 41.6198C35.6802 38.9583 36.4325 36.5864 37.9385 34.6322C39.275 32.891 41.5363 31.4444 43.4505 31.091C44.0733 30.977 44.9102 31.0469 45.2562 31.4616C45.7989 32.0933 45.6429 32.7872 45.1002 33.064C43.6399 33.8096 41.8827 35.0861 41.0132 36.829C40.308 38.2516 40.1655 39.9661 41.2427 41.5994C43.0456 44.3213 48.071 44.3962 52.7437 40.0552C53.9009 38.9927 54.9365 37.972 55.9892 36.7628C58.0472 34.4097 58.7317 33.5522 61.4674 29.7576C61.4968 29.7134 61.5115 29.656 61.4968 29.6281C61.4748 29.5766 61.4381 29.5692 61.3564 29.5619C59.5302 29.6133 57.9379 30.1568 56.3903 31.3134C55.9447 31.6384 55.3032 31.5928 55.0224 31.1648C54.7099 30.681 54.9342 30.0511 55.4482 29.6954C57.9378 27.9639 60.6575 27.6499 63.4348 27.1812C63.4326 27.1812 63.6275 27.1885 63.7864 26.9797C64.9265 25.5165 65.7874 24.1966 67.0028 22.7168C68.2274 21.2155 69.8092 19.8368 71.0177 18.8012C72.7047 17.3506 73.7867 16.8625 74.8862 16.2642C75.1759 16.1127 74.8494 15.9318 74.7612 15.9318C68.6224 14.7781 62.2417 13.2851 56.1451 15.542C51.9229 17.1177 50.0726 20.4659 50.9626 22.7033C51.5957 24.2903 53.6829 24.5483 55.6371 23.592C57.2601 22.7968 58.762 21.5152 59.8267 19.8653C60.4224 18.9491 61.6775 19.6101 60.9994 21.2011C59.2154 25.3943 55.8072 28.7203 51.6557 28.8608C48.1225 28.9755 45.8429 26.3762 45.8503 23.1696C45.865 16.8448 52.9059 12.6785 60.3057 12.0557C69.2172 11.3192 77.6578 13.693 86.5059 14.7662C93.2852 15.5872 99.7847 15.6043 106.599 14.0389C107.404 13.8639 107.97 14.3779 107.917 15.1915C107.851 16.3675 106.94 17.5002 104.695 18.7242C102.143 20.124 99.4729 20.5488 96.6841 20.5716C89.9409 20.6304 83.6595 17.9992 77.1594 16.5868C77.1667 16.8714 77.2418 17.2103 77.0035 17.39C73.403 20.0457 70.1484 22.7426 67.9688 26.5305C67.8952 26.618 67.932 26.7011 68.0621 26.6923C69.9546 26.5916 71.6565 26.543 73.4233 26.4018C73.7322 26.3724 73.7438 26.2988 73.7166 26.0738C73.56 24.7682 73.9417 23.2793 75.0902 22.2552C76.2656 21.2013 77.7374 21.0815 78.7131 21.8405C79.8223 22.7048 79.7241 24.2593 79.1175 25.425C78.4998 26.6079 77.4796 27.2405 76.5006 27.5476C76.5006 27.5476 76.2947 27.5918 76.3255 27.7786C76.3623 28.0771 77.698 28.8164 77.8122 29.0133C77.9225 29.2008 77.8637 29.4913 77.6629 29.7141C77.5217 29.8759 77.3004 30.0274 77.0173 30.0222C76.7886 30.0177 76.6496 29.9384 76.357 29.7803C75.7584 29.456 75.0103 28.9229 74.5113 28.2943C74.3414 28.0818 74.2546 28.0774 73.8303 28.1009C71.9184 28.2112 68.9373 28.4995 66.9175 28.7517C66.4278 28.8106 66.3557 28.9039 66.2549 29.0738C63.0346 34.3841 59.5961 40.1107 55.8209 43.9448C51.7716 48.0557 48.4057 49.1381 44.8325 49.1661" fill="white"/><path d="M83.8687 6.4138C41.8887 6.4138 7.86062 18.0143 7.86062 32.2094C7.86062 46.4055 41.8887 58.0069 83.8687 58.0069C125.848 58.0069 159.874 46.4055 159.874 32.2094C159.874 18.0143 125.848 6.4138 83.8687 6.4138ZM83.8687 60.3447C40.3605 60.3447 5.0907 47.7482 5.0907 32.2094C5.0907 16.6681 40.3605 4.07385 83.8687 4.07385C127.373 4.07385 162.641 16.6681 162.641 32.2094C162.641 47.7482 127.373 60.3447 83.8687 60.3447" fill="white"/></svg> 