<?xml version="1.0" encoding="utf-8" ?><!-- created by svgstack.com | Attribution is required. --><svg xmlns="http://www.w3.org/2000/svg" xmlns:xlink="http://www.w3.org/1999/xlink" width="1024" height="1024"><path fill="#3C71A9" transform="scale(2 2)" d="M247.547 55.7542C345.718 52.0801 432.428 119.271 452.65 215.397C465.51 276.531 448.349 340.916 407.269 388.097C369.683 431.264 320.646 452.175 264.813 455.994C211.102 456.085 171.039 444.42 127.832 409.689C43.5469 341.94 32.3016 213.041 99.7768 129.609C129.706 92.6019 173.444 67.974 219.965 59.0929C229.124 57.3443 238.296 56.7459 247.547 55.7542Z"/><path fill="#A1C1E0" transform="scale(2 2)" d="M255.38 95.7018C295.514 93.4507 341.918 114.677 369.629 142.588C432.108 205.515 431.811 308.587 368.633 371.299C340.336 399.387 298.048 415.967 258.263 415.824C221.465 417.297 183.396 403.94 154.887 380.82C110.649 344.943 89.2554 286.818 97.7279 230.655C109.382 153.404 177.099 95.9239 255.38 95.7018Z"/><path fill="#FEFEFE" transform="scale(2 2)" d="M255.38 146.105C285.138 144.451 290.231 190.168 258.263 193.509C224.881 194.335 224.206 148.1 255.38 146.105Z"/><path fill="#FEFEFE" transform="scale(2 2)" d="M252.925 222.072C258.755 221.628 264.116 222.383 269.138 225.559C283.367 234.557 280.754 248.016 280.758 262.658L280.753 324.024C280.752 340.874 282.266 358.908 260.465 363.431C247.042 365.313 234.826 356.903 232.376 343.374C231.463 338.329 232.003 332.544 232.001 327.395L231.998 261.49C232.001 244.567 230.152 225.996 252.925 222.072Z"/></svg> 